<svg width="16" height="16" viewBox="0 0 16 16" fill="none" xmlns="http://www.w3.org/2000/svg">
<path d="M2 6H14V12.6667C14 13.0203 13.8595 13.3594 13.6095 13.6095C13.3594 13.8595 13.0203 14 12.6667 14H3.33333C2.97971 14 2.64057 13.8595 2.39052 13.6095C2.14048 13.3594 2 13.0203 2 12.6667V6Z" stroke="#D06706" stroke-width="1.33333" stroke-linecap="round" stroke-linejoin="round"/>
<path d="M2 6.00003L3.63333 2.73337C3.74464 2.51247 3.91521 2.32689 4.12595 2.19738C4.3367 2.06788 4.57931 1.99954 4.82667 2.00003H11.1733C11.4218 1.9983 11.6658 2.06605 11.8779 2.19562C12.0899 2.3252 12.2615 2.51145 12.3733 2.73337L14 6.00003" stroke="#D06706" stroke-width="1.33333" stroke-linecap="round" stroke-linejoin="round"/>
<path d="M8 2V6" stroke="#D06706" stroke-width="1.33333" stroke-linecap="round" stroke-linejoin="round"/>
</svg>
