<?xml version="1.0" encoding="UTF-8"?>
<svg id="Layer_1" xmlns="http://www.w3.org/2000/svg" version="1.1" viewBox="0 0 130 27">
  <!-- Generator: Adobe Illustrator 30.3.0, SVG Export Plug-In . SVG Version: 2.1.1 Build 22)  -->
  <defs>
    <style>
      .st0 {
        fill: #010101;
      }

      .st1 {
        fill: #cf6928;
      }
    </style>
  </defs>
  <g>
    <path class="st0" d="M42.7,12.5c0,.1,0,.3,0,.4h-8.4c.2,2.1,1.8,3.5,3.9,3.5s2.7-.7,3.2-1.7l.8.5c-.8,1.3-2.2,2.1-4,2.1-2.8,0-4.9-2.1-4.9-4.9s2-4.9,4.8-4.9,4.6,2.3,4.6,4.9h0ZM34.3,12h7.4c-.2-2.3-1.8-3.5-3.6-3.5s-3.6,1.5-3.8,3.5h0Z"/>
    <path class="st0" d="M50.9,17.1l-3.1-4.1-3.1,4.1h-1.1l3.7-4.8-3.5-4.5h1.1l2.9,3.8,2.9-3.8h1.1l-3.5,4.5,3.7,4.8h-1.1Z"/>
    <path class="st0" d="M52.7,12.4c0-2.8,2.2-4.9,4.9-4.9s4.8,2.1,4.8,4.9-2.2,4.9-4.8,4.9-4.9-2.1-4.9-4.9ZM61.5,12.4c0-2.2-1.7-4-3.9-4s-3.9,1.8-3.9,4,1.7,4,3.9,4,3.9-1.8,3.9-4Z"/>
    <path class="st0" d="M66.4,8.7v6.1c0,1.6.9,1.7,2.8,1.5v.8c-2.4.4-3.7-.2-3.7-2.3v-6.1h-2v-.9h2v-2.3l.9-.3v2.6h2.8v.9h-2.8Z"/>
    <path class="st0" d="M71.1,4.8c0-.4.3-.7.7-.7s.7.3.7.7-.3.7-.7.7-.7-.3-.7-.7ZM71.4,7.8h.9v9.3h-.9V7.8Z"/>
    <path class="st0" d="M74.5,12.4c0-2.8,2.1-4.9,4.9-4.9s3.4.9,4,2.4l-.8.4c-.5-1.2-1.8-1.9-3.3-1.9-2.2,0-3.9,1.8-3.9,4s1.7,4,3.9,4,2.7-.8,3.3-1.9l.8.5c-.7,1.4-2.3,2.4-4.1,2.4-2.8,0-4.9-2.1-4.9-4.9h0Z"/>
    <path class="st0" d="M90.2,4.8c0-.4.3-.7.7-.7s.7.3.7.7-.3.7-.7.7-.7-.3-.7-.7ZM90.5,7.8h.9v9.3h-.9V7.8Z"/>
    <path class="st0" d="M102.1,11.3v5.8h-.9v-5.8c0-1.7-1-2.8-2.7-2.8s-3.2,1.2-3.2,3.7v4.9h-.9V7.8h.9v1.8c.7-1.4,1.9-2,3.3-2,2.2,0,3.6,1.5,3.6,3.7h0Z"/>
    <path class="st0" d="M113.8,4v13h-.9v-2.2c-.8,1.4-2.2,2.4-4,2.4-2.6,0-4.8-2.1-4.8-4.9s2.1-4.9,4.8-4.9,3.2.9,4,2.4v-5.9h.9ZM112.9,12.4c0-2.2-1.7-4-3.9-4s-3.9,1.8-3.9,4,1.7,4,3.9,4,3.9-1.8,3.9-4Z"/>
    <path class="st0" d="M116.4,4.8c0-.4.3-.7.7-.7s.7.3.7.7-.3.7-.7.7-.7-.3-.7-.7ZM116.6,7.8h.9v9.3h-.9V7.8Z"/>
    <path class="st0" d="M129.5,7.8v9.3h-.9v-2.1c-.8,1.4-2.2,2.3-4,2.3-2.6,0-4.8-2.1-4.8-4.9s2.2-4.9,4.8-4.9,3.2.9,4,2.3v-2.1h.9ZM128.5,12.4c0-2.2-1.7-4-3.9-4s-3.9,1.8-3.9,4,1.7,4,3.9,4,3.9-1.8,3.9-4Z"/>
  </g>
  <g>
    <path class="st1" d="M35.7,23.9l-.3-.8h-1.5l-.3.8h-.3l1.2-3.1h.3l1.2,3.1h-.3ZM34.1,22.9h1.2l-.6-1.6-.6,1.6h0Z"/>
    <path class="st1" d="M39.6,23.7c-.2.2-.5.3-.8.3s-.6-.1-.8-.3c-.2-.2-.3-.5-.3-.8v-2h.3v2c0,.2,0,.4.2.6s.4.2.6.2.5,0,.6-.2c.1-.1.2-.3.2-.6v-2h.3v2c0,.3-.1.6-.3.8h0Z"/>
    <path class="st1" d="M43.8,20.9v.3h-.9v2.8h-.3v-2.8h-.9v-.3h2.2Z"/>
    <path class="st1" d="M47.6,20.9h.3v3.1h-.3v-1.4h-1.7v1.4h-.3v-3.1h.3v1.3h1.7v-1.3Z"/>
    <path class="st1" d="M50.2,23.7h1.5v.3h-1.8v-3.1h1.8v.3h-1.5v1.1h1.4v.3h-1.4v1.1h0Z"/>
    <path class="st1" d="M55.5,20.9h.3v3.1h-.3l-1.7-2.5v2.5h-.3v-3.1h.3l1.7,2.5v-2.5h0Z"/>
    <path class="st1" d="M59.8,20.9v.3h-.9v2.8h-.3v-2.8h-.9v-.3h2.2Z"/>
    <path class="st1" d="M61.6,20.9h.3v3.1h-.3v-3.1Z"/>
    <path class="st1" d="M65.3,24c-.5,0-.9-.2-1.2-.5s-.5-.7-.5-1.1.2-.8.5-1.1c.3-.3.7-.5,1.2-.5s.5,0,.8.2.4.3.6.6l-.3.2c0-.2-.2-.3-.4-.4-.2-.1-.4-.2-.6-.2-.4,0-.7.1-.9.4s-.4.6-.4.9.1.7.4.9.6.4.9.4.4,0,.6-.2c.2-.1.3-.3.4-.4l.3.2c-.1.2-.3.4-.5.6-.2.1-.5.2-.8.2h0Z"/>
    <path class="st1" d="M68.7,23.9s-.1,0-.2,0-.1,0-.2,0,0-.1,0-.2,0-.1,0-.2.1,0,.2,0,.1,0,.2,0,0,.1,0,.2,0,.1,0,.2Z"/>
    <path class="st1" d="M71.9,24c-.5,0-.9-.2-1.2-.5s-.5-.7-.5-1.1.2-.8.5-1.1c.3-.3.7-.5,1.2-.5s.5,0,.8.2.4.3.6.6l-.3.2c0-.2-.2-.3-.4-.4-.2-.1-.4-.2-.6-.2-.4,0-.7.1-.9.4s-.4.6-.4.9.1.7.4.9.6.4.9.4.4,0,.6-.2c.2-.1.3-.3.4-.4l.3.2c-.1.2-.3.4-.5.6-.2.1-.5.2-.8.2h0Z"/>
    <path class="st1" d="M77,23.7c-.2.2-.5.3-.8.3s-.6-.1-.8-.3c-.2-.2-.3-.5-.3-.8v-2h.3v2c0,.2,0,.4.2.6.1.1.4.2.6.2s.5,0,.6-.2c.1-.1.2-.3.2-.6v-2h.3v2c0,.3-.1.6-.3.8Z"/>
    <path class="st1" d="M81.2,23.9l-.7-1.2h-.9v1.2h-.3v-3.1h1.2c.3,0,.5,0,.7.3.2.2.3.4.3.7s0,.4-.2.6c-.1.2-.3.3-.5.3l.8,1.3h-.4,0ZM79.6,21.2v1.3h.9c.2,0,.3,0,.4-.2s.2-.3.2-.4,0-.3-.2-.4-.3-.2-.4-.2h-.9Z"/>
    <path class="st1" d="M85.4,23.9l-.3-.8h-1.5l-.3.8h-.3l1.2-3.1h.3l1.2,3.1h-.3ZM83.7,22.9h1.2l-.6-1.6-.6,1.6h0Z"/>
    <path class="st1" d="M89.1,20.9v.3h-.9v2.8h-.3v-2.8h-.9v-.3h2.2Z"/>
    <path class="st1" d="M91.2,23.7h1.5v.3h-1.8v-3.1h1.8v.3h-1.5v1.1h1.4v.3h-1.4v1.1h0Z"/>
    <path class="st1" d="M95.7,20.9c.4,0,.8.1,1,.4s.4.7.4,1.1-.1.8-.4,1.1c-.3.3-.6.4-1,.4h-1.2v-3.1h1.2ZM95.7,23.7c.3,0,.6-.1.8-.4s.3-.5.3-.9-.1-.6-.3-.9-.5-.4-.8-.4h-.9v2.5h.9Z"/>
    <path class="st1" d="M99.1,23.9s-.1,0-.2,0-.1,0-.2,0,0-.1,0-.2,0-.1,0-.2.1,0,.2,0,.1,0,.2,0,0,.1,0,.2,0,.1,0,.2Z"/>
    <path class="st1" d="M103.1,20.9h.3v3.1h-.3v-1.4h-1.7v1.4h-.3v-3.1h.3v1.3h1.7v-1.3Z"/>
    <path class="st1" d="M105.8,23.7h1.5v.3h-1.8v-3.1h1.8v.3h-1.5v1.1h1.4v.3h-1.4v1.1h0Z"/>
    <path class="st1" d="M111,23.9l-.7-1.2h-.9v1.2h-.3v-3.1h1.2c.3,0,.5,0,.7.3.2.2.3.4.3.7s0,.4-.2.6c-.1.2-.3.3-.5.3l.8,1.3h-.4,0ZM109.4,21.2v1.3h.9c.2,0,.3,0,.4-.2s.2-.3.2-.4,0-.3-.2-.4-.3-.2-.4-.2h-.9Z"/>
    <path class="st1" d="M113.1,20.9h.3v3.1h-.3v-3.1Z"/>
    <path class="st1" d="M117.4,20.9v.3h-.9v2.8h-.3v-2.8h-.9v-.3h2.2Z"/>
    <path class="st1" d="M121,23.9l-.3-.8h-1.5l-.3.8h-.3l1.2-3.1h.3l1.2,3.1h-.3ZM119.3,22.9h1.2l-.6-1.6-.6,1.6h0Z"/>
    <path class="st1" d="M125.8,22.5v.2c0,.4-.1.7-.4,1s-.6.4-1.1.4-.9-.2-1.2-.5-.5-.7-.5-1.1.2-.8.5-1.1c.3-.3.7-.5,1.2-.5s.5,0,.8.2.4.3.6.6l-.3.2c0-.2-.2-.3-.4-.4-.2-.1-.4-.2-.6-.2-.4,0-.7.1-.9.4-.2.2-.4.6-.4.9s.1.7.4.9c.2.2.6.4.9.4s.6,0,.8-.3c.2-.2.3-.4.4-.7h-1.2v-.3h1.5,0Z"/>
    <path class="st1" d="M128,23.7h1.5v.3h-1.8v-3.1h1.8v.3h-1.5v1.1h1.4v.3h-1.4v1.1h0Z"/>
  </g>
  <g>
    <path class="st1" d="M20,27H8c-.1,0-.2,0-.2-.2v-2.1c0-.1,0-.2.2-.2h3.5v-1.2h-7.1c-.1,0-.2,0-.2-.2v-7.1h-1.2v3.5c0,.1,0,.2-.2.2H.7c-.1,0-.2,0-.2-.2V7.5c0-.1,0-.2.2-.2h2.1c.1,0,.2,0,.2.2v3.5h1.2V3.9c0-.1,0-.2.2-.2h7.1v-1.2h-3.5c-.1,0-.2,0-.2-.2V.2c0-.1,0-.2.2-.2h12.1c.1,0,.2,0,.2.2v2.1c0,.1,0,.2-.2.2h-3.5v1.2h7.1c.1,0,.2,0,.2.2v7.1h1.2v-3.5c0-.1,0-.2.2-.2h2.1c.1,0,.2,0,.2.2v12.1c0,.1,0,.2-.2.2h-2.1c-.1,0-.2,0-.2-.2v-3.5h-1.2v7.1c0,.1,0,.2-.2.2h-7.1v1.2h3.5c.1,0,.2,0,.2.2v2.1c0,.1,0,.2-.2.2ZM8.2,26.6h11.6v-1.7h-3.5c-.1,0-.2,0-.2-.2v-1.6c0-.1,0-.2.2-.2h7.1v-7.1c0-.1,0-.2.2-.2h1.6c.1,0,.2,0,.2.2v3.5h1.7V7.7h-1.7v3.5c0,.1,0,.2-.2.2h-1.6c-.1,0-.2,0-.2-.2v-7.1h-7.1c-.1,0-.2,0-.2-.2v-1.6c0-.1,0-.2.2-.2h3.5V.4h-11.6v1.7h3.5c.1,0,.2,0,.2.2v1.6c0,.1,0,.2-.2.2h-7.1v7.1c0,.1,0,.2-.2.2h-1.6c-.1,0-.2,0-.2-.2v-3.5H.9v11.6h1.7v-3.5c0-.1,0-.2.2-.2h1.6c.1,0,.2,0,.2.2v7.1h7.1c.1,0,.2,0,.2.2v1.6c0,.1,0,.2-.2.2h-3.5v1.7h0Z"/>
    <g>
      <path class="st1" d="M14,19.4c-3.2,0-5.9-2.6-5.9-5.9s2.6-5.9,5.9-5.9,5.9,2.6,5.9,5.9-2.6,5.9-5.9,5.9ZM14,8c-3,0-5.5,2.4-5.5,5.5s2.4,5.5,5.5,5.5,5.5-2.4,5.5-5.5-2.4-5.5-5.5-5.5Z"/>
      <g>
        <path class="st1" d="M15.1,8s0,0,0,0c-.1,0-.2-.1-.2-.2l.4-2.1-1.3-1.2-1.3,1.2.4,2.1c0,.1,0,.2-.2.2-.1,0-.2,0-.2-.2l-.4-2.2c0,0,0-.1,0-.2l1.6-1.4c0,0,.2,0,.3,0l1.5,1.4c0,0,0,.1,0,.2l-.4,2.2c0,.1-.1.2-.2.2h0Z"/>
        <path class="st1" d="M14.3,8.1c0,0-.2,0-.2-.1v-.3c-.1,0-.2.3-.2.3,0,.1-.2.2-.3.1-.1,0-.2-.2-.1-.3l.3-.8c0,0,.1-.1.2-.1h0c0,0,.2,0,.2.1l.3.8c0,.1,0,.2-.1.3,0,0,0,0,0,0h0Z"/>
      </g>
      <g>
        <path class="st1" d="M10.8,8.9c0,0-.1,0-.2,0l-1.2-1.9c0,0,0-.1,0-.2l.9-1.9c0-.1.2-.1.3-.1l2,.7c0,0,.1,0,.1.2l.4,2.2c0,.1,0,.2-.2.2-.1,0-.2,0-.2-.2l-.4-2.1-1.7-.6-.7,1.6,1.2,1.8c0,0,0,.2,0,.3,0,0,0,0-.1,0h0Z"/>
        <path class="st1" d="M11.6,8.6c-.1,0-.2,0-.2-.2v-.9c0,0,0-.2.1-.2s.2,0,.2,0l.6.6c0,0,0,.2,0,.3s-.2,0-.3,0l-.2-.2v.3c0,.1,0,.2-.2.2h0,0Z"/>
      </g>
      <g>
        <path class="st1" d="M9.2,10.5s0,0-.1,0l-1.9-1.3c0,0,0-.1,0-.2v-2.1c0-.1.2-.2.3-.2h2.1c0,0,.1,0,.2,0l1.3,1.9c0,0,0,.2,0,.3,0,0-.2,0-.3,0l-1.2-1.8h-1.8c0,0,0,1.9,0,1.9l1.8,1.2c0,0,.1.2,0,.3,0,0-.1,0-.2,0h0Z"/>
        <path class="st1" d="M9.8,9.9c0,0-.2,0-.2-.1l-.4-.8c0,0,0-.2,0-.2,0,0,.2,0,.2,0l.8.4c.1,0,.2.2.1.3,0,.1-.2.2-.3.1h-.3c0-.1.1.2.1.2,0,.1,0,.2-.1.3,0,0,0,0,0,0Z"/>
      </g>
      <g>
        <path class="st1" d="M8.3,12.6s0,0,0,0l-2.2-.4c0,0-.1,0-.2-.1l-.7-2c0-.1,0-.2.1-.3l1.9-.9c0,0,.1,0,.2,0l1.9,1.2c0,0,.1.2,0,.3,0,0-.2.1-.3,0l-1.8-1.2-1.6.7.6,1.7,2.1.4c.1,0,.2.1.2.2,0,.1-.1.2-.2.2h0Z"/>
        <path class="st1" d="M8.7,11.8c0,0-.1,0-.1,0l-.6-.6c0,0,0-.2,0-.2s.1-.1.2-.1h.9c.1,0,.2.1.2.2s0,.2-.2.2h-.3s.2.2.2.2c0,0,0,.2,0,.3,0,0,0,0-.2,0h0Z"/>
      </g>
      <g>
        <path class="st1" d="M6.1,15.3c0,0-.1,0-.2,0l-1.4-1.6c0,0,0-.2,0-.3l1.4-1.6c0,0,.1,0,.2,0l2.2.4c.1,0,.2.1.2.2,0,.1-.1.2-.2.2l-2.1-.4-1.2,1.3,1.2,1.3,2.1-.4c.1,0,.2,0,.2.2,0,.1,0,.2-.2.2l-2.2.4s0,0,0,0h0Z"/>
        <path class="st1" d="M8.4,14s0,0,0,0l-.8-.3c0,0-.1-.1-.1-.2s0-.2.1-.2l.8-.3c.1,0,.2,0,.3.1s0,.2-.1.3h-.3c0,.1.3.2.3.2.1,0,.2.2.1.3,0,0-.1.1-.2.1h0Z"/>
      </g>
      <g>
        <path class="st1" d="M7.3,18.2s0,0,0,0l-1.9-.9c-.1,0-.1-.2-.1-.3l.7-2c0,0,0-.1.2-.1l2.2-.4c.1,0,.2,0,.2.2s0,.2-.2.2l-2.1.4-.6,1.7,1.6.7,1.8-1.2c0,0,.2,0,.3,0,0,0,0,.2,0,.3l-1.9,1.2s0,0-.1,0h0Z"/>
        <path class="st1" d="M8,16.2c0,0-.2,0-.2-.1,0,0,0-.2,0-.2l.6-.6c0,0,.2,0,.3,0,0,0,0,.2,0,.3l-.2.2h.3c.1,0,.2,0,.2.2,0,.1,0,.2-.2.2h-.9s0,0,0,0h0Z"/>
      </g>
      <g>
        <path class="st1" d="M9.5,20.4h-2.1c-.1,0-.2-.2-.2-.3v-2.1c0,0,0-.1,0-.2l1.9-1.3c0,0,.2,0,.3,0,0,0,0,.2,0,.3l-1.8,1.2v1.8c0,0,1.9,0,1.9,0l1.2-1.8c0,0,.2-.1.3,0,0,0,.1.2,0,.3l-1.3,1.9c0,0-.1,0-.2,0h0Z"/>
        <path class="st1" d="M9.4,18.3c0,0-.1,0-.1,0,0,0,0-.2,0-.2l.4-.8c0-.1.2-.2.3-.1.1,0,.2.2.1.3v.3c-.1,0,.2-.1.2-.1.1,0,.2,0,.3.1,0,.1,0,.2-.1.3l-.8.4s0,0,0,0h0Z"/>
      </g>
      <g>
        <path class="st1" d="M10.4,22.3c0,0-.2,0-.2-.1l-.9-1.9c0,0,0-.1,0-.2l1.2-1.9c0,0,.2-.1.3,0,0,0,.1.2,0,.3l-1.2,1.8.7,1.6,1.7-.6.4-2.1c0-.1.1-.2.2-.2.1,0,.2.1.2.2l-.4,2.2c0,0,0,.1-.1.2l-2,.7s0,0,0,0h0Z"/>
        <path class="st1" d="M11.5,19.7s0,0,0,0c0,0-.1-.1-.1-.2v-.9c0-.1.1-.2.2-.2h0c.1,0,.2.1.2.2v.3s.2-.2.2-.2c0,0,.2,0,.3,0,0,0,0,.2,0,.3l-.6.6s0,0-.2,0h0Z"/>
      </g>
      <g>
        <path class="st1" d="M14,23c0,0-.1,0-.1,0l-1.5-1.4c0,0,0-.1,0-.2l.4-2.2c0-.1.1-.2.2-.2.1,0,.2.1.2.2l-.4,2.1,1.3,1.2,1.3-1.2-.4-2.1c0-.1,0-.2.2-.2.1,0,.2,0,.2.2l.4,2.2c0,0,0,.1,0,.2l-1.6,1.4s0,0-.1,0h0Z"/>
        <path class="st1" d="M14,20.2h0c0,0-.2,0-.2-.1l-.3-.8c0-.1,0-.2.1-.3.1,0,.2,0,.3.1v.3c.1,0,.2-.3.2-.3,0-.1.2-.2.3-.1s.2.2.1.3l-.3.8c0,0-.1.1-.2.1h0Z"/>
      </g>
      <g>
        <path class="st1" d="M17.6,22.3s0,0,0,0l-2-.7c0,0-.1,0-.1-.2l-.4-2.2c0-.1,0-.2.2-.2.1,0,.2,0,.2.2l.4,2.1,1.7.6.7-1.6-1.2-1.8c0,0,0-.2,0-.3,0,0,.2,0,.3,0l1.2,1.9c0,0,0,.1,0,.2l-.9,1.9c0,0-.1.1-.2.1h0Z"/>
        <path class="st1" d="M16.5,19.7c0,0-.1,0-.2,0l-.6-.6c0,0,0-.2,0-.3s.2,0,.3,0l.2.2v-.3c0-.1,0-.2.2-.2.1,0,.2,0,.2.2v.9c0,0,0,.2-.1.2,0,0,0,0,0,0h0Z"/>
      </g>
      <g>
        <path class="st1" d="M18.5,20.4c0,0-.1,0-.2,0l-1.3-1.9c0,0,0-.2,0-.3,0,0,.2,0,.3,0l1.2,1.8h1.8c0,0,0-1.9,0-1.9l-1.8-1.2c0,0-.1-.2,0-.3,0,0,.2-.1.3,0l1.9,1.3c0,0,0,.1,0,.2v2.1c0,.1-.2.2-.3.2h-2.1c0,0,0,0,0,0h0Z"/>
        <path class="st1" d="M18.6,18.3s0,0,0,0l-.8-.4c-.1,0-.2-.2-.1-.3,0-.1.2-.2.3-.1h.3c0,.1-.1-.2-.1-.2,0-.1,0-.2.1-.3.1,0,.2,0,.3.1l.4.8c0,0,0,.2,0,.2s0,0-.1,0h0Z"/>
      </g>
      <g>
        <path class="st1" d="M20.7,18.2s0,0-.1,0l-1.9-1.2c0,0-.1-.2,0-.3,0,0,.2-.1.3,0l1.8,1.2,1.6-.7-.6-1.7-2.1-.4c-.1,0-.2-.1-.2-.2,0-.1.1-.2.2-.2l2.2.4c0,0,.1,0,.2.1l.7,2c0,.1,0,.2-.1.3l-1.9.9s0,0,0,0h0Z"/>
        <path class="st1" d="M20,16.2h-.9c-.1,0-.2-.1-.2-.2s0-.2.2-.2h.3s-.2-.2-.2-.2c0,0,0-.2,0-.3,0,0,.2,0,.3,0l.6.6c0,0,0,.2,0,.2,0,0-.1.1-.2.1h0Z"/>
      </g>
      <g>
        <path class="st1" d="M21.9,15.3s0,0,0,0l-2.2-.4c-.1,0-.2-.1-.2-.2,0-.1.1-.2.2-.2l2.1.4,1.2-1.3-1.2-1.3-2.1.4c-.1,0-.2,0-.2-.2,0-.1,0-.2.2-.2l2.2-.4c0,0,.1,0,.2,0l1.4,1.6c0,0,0,.2,0,.3l-1.4,1.6s0,0-.2,0h0Z"/>
        <path class="st1" d="M19.6,14c0,0-.2,0-.2-.1,0-.1,0-.2.1-.3h.3c0-.1-.3-.2-.3-.2-.1,0-.2-.2-.1-.3s.2-.2.3-.1l.8.3c0,0,.1.1.1.2s0,.2-.1.2l-.8.3s0,0,0,0h0Z"/>
      </g>
      <g>
        <path class="st1" d="M19.7,12.6c0,0-.2,0-.2-.2,0-.1,0-.2.2-.2l2.1-.4.6-1.7-1.6-.7-1.8,1.2c0,0-.2,0-.3,0,0,0,0-.2,0-.3l1.9-1.2c0,0,.1,0,.2,0l1.9.9c.1,0,.1.2.1.3l-.7,2c0,0,0,.1-.2.1l-2.2.4s0,0,0,0h0Z"/>
        <path class="st1" d="M19.3,11.8c0,0-.1,0-.2,0,0,0,0-.2,0-.3l.2-.2h-.3c-.1,0-.2,0-.2-.2,0-.1,0-.2.2-.2h.9c0,0,.2,0,.2.1s0,.2,0,.2l-.6.6s0,0-.1,0h0Z"/>
      </g>
      <g>
        <path class="st1" d="M18.8,10.5c0,0-.1,0-.2,0,0,0,0-.2,0-.3l1.8-1.2v-1.8c0,0-1.9,0-1.9,0l-1.2,1.8c0,0-.2.1-.3,0,0,0-.1-.2,0-.3l1.3-1.9c0,0,0,0,.2,0h2.1c.1,0,.2.2.2.3v2.1c0,0,0,.1,0,.2l-1.9,1.3s0,0-.1,0h0Z"/>
        <path class="st1" d="M18.2,9.9s0,0,0,0c-.1,0-.2-.2-.1-.3v-.3c.1,0-.2.1-.2.1-.1,0-.2,0-.3-.1,0-.1,0-.2.1-.3l.8-.4c0,0,.2,0,.2,0,0,0,0,.2,0,.2l-.4.8c0,0-.1.1-.2.1h0Z"/>
      </g>
      <g>
        <path class="st1" d="M17.2,8.9s0,0-.1,0c0,0-.1-.2,0-.3l1.2-1.8-.7-1.6-1.7.6-.4,2.1c0,.1-.1.2-.2.2-.1,0-.2-.1-.2-.2l.4-2.2c0,0,0-.1.1-.2l2-.7c.1,0,.2,0,.3.1l.9,1.9c0,0,0,.1,0,.2l-1.2,1.9c0,0-.1,0-.2,0h0Z"/>
        <path class="st1" d="M16.5,8.6h0c-.1,0-.2-.1-.2-.2v-.3s-.2.2-.2.2c0,0-.2,0-.3,0s0-.2,0-.3l.6-.6c0,0,.2,0,.2,0s.1.1.1.2v.9c0,.1-.1.2-.2.2h0Z"/>
      </g>
    </g>
    <g>
      <path class="st1" d="M14,18.2c0,0-.1,0-.1,0l-1.2-1.2h-1.8c-.1,0-.2,0-.2-.2v-1.8l-1.2-1.2c0,0,0-.2,0-.3l1.2-1.2v-1.8c0-.1,0-.2.2-.2h1.8l1.2-1.2c0,0,.2,0,.3,0l1.2,1.2h1.8c.1,0,.2,0,.2.2v1.8l1.2,1.2c0,0,0,.2,0,.3l-1.2,1.2v1.8c0,.1,0,.2-.2.2h-1.8l-1.2,1.2s0,0-.1,0h0ZM12.9,16.6l1.1,1.1,1.1-1.1s0,0,.1,0c0,0,.1,0,.2,0h1.5v-1.5c0,0,0-.1,0-.2s0-.1.1-.1l1.1-1.1-1.1-1.1s0,0,0-.1c0,0,0-.1,0-.2v-1.5h-1.5c0,0-.1,0-.2,0s-.1,0-.1-.1l-1.1-1.1-1.1,1.1s0,0-.1.1c0,0-.1,0-.2,0h-1.5v1.6s0,.1,0,.1c0,0,0,.1-.1.1l-1.1,1.1,1.1,1.1s0,0,0,0c0,0,0,.1,0,.2v1.5h1.6s0,0,.1,0c0,0,.1,0,.1.1h0ZM14,16.1c-.4,0-.7,0-1-.2-.6-.3-1.1-.8-1.4-1.4-.1-.3-.2-.7-.2-1s0-.7.2-1c.3-.6.8-1.1,1.4-1.4.6-.3,1.4-.3,2,0,.6.3,1.1.8,1.4,1.4.1.3.2.7.2,1s0,.7-.2,1c-.3.6-.8,1.1-1.4,1.4-.3.1-.6.2-1,.2h0ZM14,11.3c-.3,0-.6,0-.8.2-.5.2-1,.6-1.2,1.2-.1.3-.2.6-.2.8s0,.6.2.8c.2.5.6,1,1.2,1.2.5.2,1.2.2,1.7,0h0c.5-.2,1-.6,1.2-1.2.1-.3.2-.6.2-.8s0-.6-.2-.8c-.2-.5-.6-1-1.2-1.2-.3-.1-.5-.2-.8-.2h0Z"/>
      <path class="st1" d="M15.3,16.8c0,0-.2,0-.2-.1l-.4-.9c0-.1,0-.2.1-.3.1,0,.2,0,.3.1l.4.9c0,.1,0,.2-.1.3,0,0,0,0,0,0h0Z"/>
      <path class="st1" d="M13.1,11.5c0,0-.2,0-.2-.1l-.4-.9c0-.1,0-.2.1-.3.1,0,.2,0,.3.1l.4.9c0,.1,0,.2-.1.3,0,0,0,0,0,0h0Z"/>
      <path class="st1" d="M12.7,16.8s0,0,0,0c-.1,0-.2-.2-.1-.3l.4-.9c0-.1.2-.2.3-.1.1,0,.2.2.1.3l-.4.9c0,0-.1.1-.2.1h0Z"/>
      <path class="st1" d="M14.9,11.5s0,0,0,0c-.1,0-.2-.2-.1-.3l.4-.9c0-.1.2-.2.3-.1.1,0,.2.2.1.3l-.4.9c0,0-.1.1-.2.1h0Z"/>
      <path class="st1" d="M10.9,15c0,0-.2,0-.2-.1,0-.1,0-.2.1-.3l.9-.4c.1,0,.2,0,.3.1,0,.1,0,.2-.1.3l-.9.4s0,0,0,0h0Z"/>
      <path class="st1" d="M16.2,12.8c0,0-.2,0-.2-.1,0-.1,0-.2.1-.3l.9-.4c.1,0,.2,0,.3.1,0,.1,0,.2-.1.3l-.9.4s0,0,0,0h0Z"/>
      <path class="st1" d="M11.8,12.8s0,0,0,0l-.9-.4c-.1,0-.2-.2-.1-.3,0-.1.2-.2.3-.1l.9.4c.1,0,.2.2.1.3,0,0-.1.1-.2.1h0Z"/>
      <path class="st1" d="M17.1,15s0,0,0,0l-.9-.4c-.1,0-.2-.2-.1-.3,0-.1.2-.2.3-.1l.9.4c.1,0,.2.2.1.3,0,0-.1.1-.2.1h0Z"/>
    </g>
    <path class="st1" d="M14,13.9c-.2,0-.4-.2-.4-.4s.2-.4.4-.4.4.2.4.4-.2.4-.4.4ZM14,13.4s0,0,0,0c0,0,.1,0,.1,0s0,0,0,0h0Z"/>
  </g>
</svg>