<svg width="28" height="28" viewBox="0 0 28 28" fill="none" xmlns="http://www.w3.org/2000/svg">
<path d="M16.3335 20.9998V6.99984C16.3335 6.381 16.0877 5.78751 15.6501 5.34992C15.2125 4.91234 14.619 4.6665 14.0002 4.6665H4.66683C4.04799 4.6665 3.4545 4.91234 3.01691 5.34992C2.57933 5.78751 2.3335 6.381 2.3335 6.99984V19.8332C2.3335 20.1426 2.45641 20.4393 2.6752 20.6581C2.894 20.8769 3.19074 20.9998 3.50016 20.9998H5.8335" stroke="white" stroke-width="2.33333" stroke-linecap="round" stroke-linejoin="round"/>
<path d="M17.5 21H10.5" stroke="white" stroke-width="2.33333" stroke-linecap="round" stroke-linejoin="round"/>
<path d="M22.1668 21.0002H24.5002C24.8096 21.0002 25.1063 20.8772 25.3251 20.6585C25.5439 20.4397 25.6668 20.1429 25.6668 19.8335V15.5752C25.6664 15.3104 25.5758 15.0537 25.4102 14.8472L21.3502 9.77216C21.241 9.63552 21.1026 9.52516 20.9451 9.44923C20.7876 9.3733 20.615 9.33375 20.4402 9.3335H16.3335" stroke="white" stroke-width="2.33333" stroke-linecap="round" stroke-linejoin="round"/>
<path d="M19.8333 23.3332C21.122 23.3332 22.1667 22.2885 22.1667 20.9998C22.1667 19.7112 21.122 18.6665 19.8333 18.6665C18.5447 18.6665 17.5 19.7112 17.5 20.9998C17.5 22.2885 18.5447 23.3332 19.8333 23.3332Z" stroke="white" stroke-width="2.33333" stroke-linecap="round" stroke-linejoin="round"/>
<path d="M8.16683 23.3332C9.45549 23.3332 10.5002 22.2885 10.5002 20.9998C10.5002 19.7112 9.45549 18.6665 8.16683 18.6665C6.87816 18.6665 5.8335 19.7112 5.8335 20.9998C5.8335 22.2885 6.87816 23.3332 8.16683 23.3332Z" stroke="white" stroke-width="2.33333" stroke-linecap="round" stroke-linejoin="round"/>
</svg>
