<svg width="16" height="16" viewBox="0 0 16 16" fill="none" xmlns="http://www.w3.org/2000/svg">
<path d="M10.0001 1.33301H4.00008C3.64646 1.33301 3.30732 1.47348 3.05727 1.72353C2.80722 1.97358 2.66675 2.31272 2.66675 2.66634V13.333C2.66675 13.6866 2.80722 14.0258 3.05727 14.2758C3.30732 14.5259 3.64646 14.6663 4.00008 14.6663H12.0001C12.3537 14.6663 12.6928 14.5259 12.9429 14.2758C13.1929 14.0258 13.3334 13.6866 13.3334 13.333V4.66634L10.0001 1.33301Z" stroke="#D06706" stroke-width="1.33333" stroke-linecap="round" stroke-linejoin="round"/>
<path d="M9.33325 1.33301V3.99967C9.33325 4.3533 9.47373 4.69244 9.72378 4.94248C9.97383 5.19253 10.313 5.33301 10.6666 5.33301H13.3333" stroke="#D06706" stroke-width="1.33333" stroke-linecap="round" stroke-linejoin="round"/>
<path d="M6.66659 6H5.33325" stroke="#D06706" stroke-width="1.33333" stroke-linecap="round" stroke-linejoin="round"/>
<path d="M10.6666 8.66699H5.33325" stroke="#D06706" stroke-width="1.33333" stroke-linecap="round" stroke-linejoin="round"/>
<path d="M10.6666 11.333H5.33325" stroke="#D06706" stroke-width="1.33333" stroke-linecap="round" stroke-linejoin="round"/>
</svg>
