<svg width="16" height="16" viewBox="0 0 16 16" fill="none" xmlns="http://www.w3.org/2000/svg">
<path d="M9.3335 12.0003V4.00033C9.3335 3.6467 9.19302 3.30756 8.94297 3.05752C8.69292 2.80747 8.35378 2.66699 8.00016 2.66699H2.66683C2.31321 2.66699 1.97407 2.80747 1.72402 3.05752C1.47397 3.30756 1.3335 3.6467 1.3335 4.00033V11.3337C1.3335 11.5105 1.40373 11.68 1.52876 11.8051C1.65378 11.9301 1.82335 12.0003 2.00016 12.0003H3.3335" stroke="#D06706" stroke-width="1.33333" stroke-linecap="round" stroke-linejoin="round"/>
<path d="M10 12H6" stroke="#D06706" stroke-width="1.33333" stroke-linecap="round" stroke-linejoin="round"/>
<path d="M12.6668 11.9997H14.0002C14.177 11.9997 14.3465 11.9294 14.4716 11.8044C14.5966 11.6794 14.6668 11.5098 14.6668 11.333V8.89967C14.6666 8.74838 14.6148 8.60168 14.5202 8.48367L12.2002 5.58367C12.1378 5.50559 12.0587 5.44253 11.9687 5.39914C11.8787 5.35575 11.7801 5.33315 11.6802 5.33301H9.3335" stroke="#D06706" stroke-width="1.33333" stroke-linecap="round" stroke-linejoin="round"/>
<path d="M11.3333 13.3337C12.0697 13.3337 12.6667 12.7367 12.6667 12.0003C12.6667 11.2639 12.0697 10.667 11.3333 10.667C10.597 10.667 10 11.2639 10 12.0003C10 12.7367 10.597 13.3337 11.3333 13.3337Z" stroke="#D06706" stroke-width="1.33333" stroke-linecap="round" stroke-linejoin="round"/>
<path d="M4.66683 13.3337C5.40321 13.3337 6.00016 12.7367 6.00016 12.0003C6.00016 11.2639 5.40321 10.667 4.66683 10.667C3.93045 10.667 3.3335 11.2639 3.3335 12.0003C3.3335 12.7367 3.93045 13.3337 4.66683 13.3337Z" stroke="#D06706" stroke-width="1.33333" stroke-linecap="round" stroke-linejoin="round"/>
</svg>
