<svg width="20" height="20" viewBox="0 0 20 20" fill="none" xmlns="http://www.w3.org/2000/svg">
<g clip-path="url(#clip0_2238_3398)">
<path d="M11.6667 14.9997V4.99967C11.6667 4.55765 11.4912 4.13372 11.1786 3.82116C10.866 3.5086 10.4421 3.33301 10.0001 3.33301H3.33341C2.89139 3.33301 2.46746 3.5086 2.1549 3.82116C1.84234 4.13372 1.66675 4.55765 1.66675 4.99967V14.1663C1.66675 14.3874 1.75455 14.5993 1.91083 14.7556C2.06711 14.9119 2.27907 14.9997 2.50008 14.9997H4.16675" stroke="white" stroke-width="1.66667" stroke-linecap="round" stroke-linejoin="round"/>
<path d="M12.5 15H7.5" stroke="white" stroke-width="1.66667" stroke-linecap="round" stroke-linejoin="round"/>
<path d="M15.8334 15.0003H17.5001C17.7211 15.0003 17.9331 14.9125 18.0893 14.7562C18.2456 14.6 18.3334 14.388 18.3334 14.167V11.1253C18.3331 10.9362 18.2684 10.7528 18.1501 10.6053L15.2501 6.98033C15.1721 6.88273 15.0733 6.80389 14.9608 6.74966C14.8482 6.69542 14.725 6.66717 14.6001 6.66699H11.6667" stroke="white" stroke-width="1.66667" stroke-linecap="round" stroke-linejoin="round"/>
<path d="M14.1667 16.6663C15.0871 16.6663 15.8333 15.9201 15.8333 14.9997C15.8333 14.0792 15.0871 13.333 14.1667 13.333C13.2462 13.333 12.5 14.0792 12.5 14.9997C12.5 15.9201 13.2462 16.6663 14.1667 16.6663Z" stroke="white" stroke-width="1.66667" stroke-linecap="round" stroke-linejoin="round"/>
<path d="M5.83341 16.6663C6.75389 16.6663 7.50008 15.9201 7.50008 14.9997C7.50008 14.0792 6.75389 13.333 5.83341 13.333C4.91294 13.333 4.16675 14.0792 4.16675 14.9997C4.16675 15.9201 4.91294 16.6663 5.83341 16.6663Z" stroke="white" stroke-width="1.66667" stroke-linecap="round" stroke-linejoin="round"/>
</g>
<defs>
<clipPath id="clip0_2238_3398">
<rect width="20" height="20" fill="white"/>
</clipPath>
</defs>
</svg>
